<?xml version="1.0" encoding="UTF-8" standalone="no"?>
<!-- Created with Inkscape (http://www.inkscape.org/) -->

<svg
   xmlns:dc="http://purl.org/dc/elements/1.1/"
   xmlns:cc="http://creativecommons.org/ns#"
   xmlns:rdf="http://www.w3.org/1999/02/22-rdf-syntax-ns#"
   xmlns:svg="http://www.w3.org/2000/svg"
   xmlns="http://www.w3.org/2000/svg"
   xmlns:sodipodi="http://sodipodi.sourceforge.net/DTD/sodipodi-0.dtd"
   xmlns:inkscape="http://www.inkscape.org/namespaces/inkscape"
   width="744.09448819"
   height="1052.3622047"
   id="svg2"
   version="1.1"
   inkscape:version="0.48.3.1 r9886"
   sodipodi:docname="novosga.svg">
  <defs
     id="defs4" />
  <sodipodi:namedview
     id="base"
     pagecolor="#ffffff"
     bordercolor="#666666"
     borderopacity="1.0"
     inkscape:pageopacity="0.0"
     inkscape:pageshadow="2"
     inkscape:zoom="0.38"
     inkscape:cx="400.83943"
     inkscape:cy="599.70441"
     inkscape:document-units="px"
     inkscape:current-layer="layer1"
     showgrid="false"
     inkscape:window-width="1280"
     inkscape:window-height="723"
     inkscape:window-x="0"
     inkscape:window-y="24"
     inkscape:window-maximized="1" />
  <metadata
     id="metadata7">
    <rdf:RDF>
      <cc:Work
         rdf:about="">
        <dc:format>image/svg+xml</dc:format>
        <dc:type
           rdf:resource="http://purl.org/dc/dcmitype/StillImage" />
        <dc:title></dc:title>
      </cc:Work>
    </rdf:RDF>
  </metadata>
  <g
     inkscape:label="Layer 1"
     inkscape:groupmode="layer"
     id="layer1">
    <g
       id="g4038"
       transform="translate(-148.84211,-353.89474)">
      <text
         sodipodi:linespacing="125%"
         id="text3768"
         y="453.81247"
         x="432.00394"
         style="font-size:47.34656525px;font-style:normal;font-variant:normal;font-weight:bold;font-stretch:normal;text-align:start;line-height:125%;letter-spacing:0px;word-spacing:0px;writing-mode:lr-tb;text-anchor:start;fill:#565656;fill-opacity:1;stroke:none;font-family:Ubuntu Mono;-inkscape-font-specification:Ubuntu Mono Bold"
         xml:space="preserve"><tspan
           y="453.81247"
           x="432.00394"
           id="tspan3770"
           sodipodi:role="line">novo</tspan></text>
      <g
         transform="translate(176.81833,-276.93603)"
         id="g3882">
        <path
           style="fill:#ffb732;fill-opacity:1;stroke:none"
           d="m 103.08288,709.89894 c -12.165114,54.71151 3.07278,112.95728 41.22983,106.53207 C 99.841989,851.096 56.03268,790.5632 55.392068,762.85247 c 0.0035,-1.156 0.299321,-2.28875 0.484363,-3.41694 2.666629,4.76643 5.944215,9.15025 9.697454,13.10326 -1.322005,-10.38218 -0.310003,-21.22855 3.493041,-31.74702 0.393051,-1.08713 0.841894,-2.1777 1.283574,-3.23223 0.953639,3.36706 2.169106,6.66761 3.642687,9.83171 1.473063,-7.03368 4.077116,-13.94393 7.910049,-20.4863 0.584612,-0.99729 1.192366,-1.98952 1.81863,-2.94603 0.363735,3.90111 1.106714,7.75101 2.156239,11.51529 3.193489,-8.39833 8.07511,-16.30165 14.721985,-23.16521 0.8042,-0.83042 1.64765,-1.62929 2.48283,-2.41004 z"
           id="path3859"
           inkscape:connector-curvature="0"
           sodipodi:nodetypes="cccccsccsccsc" />
        <path
           sodipodi:nodetypes="cccccsccsccsc"
           inkscape:connector-curvature="0"
           id="path3861"
           d="m 141.71506,704.47838 c -29.86317,47.4292 -35.1099,107.40616 2.98447,114.19314 -53.54101,17.68235 -74.430659,-54.06091 -65.710891,-80.37175 0.39217,-1.08745 1.051918,-2.05462 1.605734,-3.0548 0.907564,5.38574 2.519165,10.61671 4.72366,15.60203 2.248034,-10.22171 6.850218,-20.09532 13.970436,-28.72109 0.735861,-0.89153 1.525471,-1.76752 2.296171,-2.61196 -0.23476,3.49162 -0.20058,7.00871 0.12255,10.48412 3.75361,-6.12805 8.53075,-11.75936 14.34138,-16.6308 0.88605,-0.74243 1.7922,-1.47235 2.70376,-2.1624 -0.96995,3.79605 -1.56557,7.67149 -1.84367,11.56943 5.83285,-6.8343 13.08891,-12.63452 21.65749,-16.86169 1.03667,-0.51147 2.09976,-0.97996 3.14892,-1.43422 z"
           style="fill:#c8ff00;fill-opacity:1;stroke:none" />
        <path
           sodipodi:nodetypes="cccccsccsccsc"
           inkscape:connector-curvature="0"
           id="path3833"
           d="m 189.89043,713.81564 c -47.10267,30.37558 -77.19317,82.52273 -45.53113,104.76591 -55.999046,-6.58888 -44.628481,-80.44132 -25.61089,-100.60628 0.81482,-0.82002 1.82134,-1.41797 2.7458,-2.09061 -1.45236,5.26502 -2.2012,10.68715 -2.30889,16.13708 6.3554,-8.3154 14.69753,-15.32091 24.79494,-20.13171 1.04359,-0.49723 2.12933,-0.9577 3.18461,-1.39755 -1.6877,3.06565 -3.14239,6.26799 -4.31753,9.55461 5.99083,-3.96893 12.69957,-7.05525 20.02409,-9.01629 1.11675,-0.29869 2.24641,-0.57751 3.36414,-0.81791 -2.48264,3.03105 -4.65955,6.29216 -6.55817,9.7078 8.17382,-3.73079 17.20082,-5.92312 26.75301,-6.1352 1.15571,-0.0257 2.31718,-10e-4 3.46003,0.0302 z"
           style="fill:#5adff1;fill-opacity:1;stroke:none" />
      </g>
      <g
         transform="translate(185.9899,-280.4508)"
         id="g3937">
        <text
           xml:space="preserve"
           style="font-size:145.18161011px;font-style:normal;font-variant:normal;font-weight:bold;font-stretch:normal;text-align:start;line-height:125%;letter-spacing:0px;word-spacing:0px;writing-mode:lr-tb;text-anchor:start;fill:#0055a3;fill-opacity:1;stroke:none;font-family:Ubuntu Mono;-inkscape-font-specification:Ubuntu Mono Bold"
           x="203.63222"
           y="876.14343"
           id="text2996"
           sodipodi:linespacing="125%"
           transform="scale(1.0571077,0.9459774)"><tspan
             sodipodi:role="line"
             id="tspan2998"
             x="203.63222"
             y="876.14343">G</tspan></text>
        <text
           sodipodi:linespacing="125%"
           id="text3874"
           y="876.14343"
           x="139.96748"
           style="font-size:145.18161011px;font-style:normal;font-variant:normal;font-weight:bold;font-stretch:normal;text-align:start;line-height:125%;letter-spacing:0px;word-spacing:0px;writing-mode:lr-tb;text-anchor:start;fill:#0055a3;fill-opacity:1;stroke:none;font-family:Ubuntu Mono;-inkscape-font-specification:Ubuntu Mono Bold"
           xml:space="preserve"
           transform="scale(1.0571077,0.9459774)"><tspan
             y="876.14343"
             x="139.96748"
             id="tspan3876"
             sodipodi:role="line">S</tspan></text>
        <text
           xml:space="preserve"
           style="font-size:145.18161011px;font-style:normal;font-variant:normal;font-weight:bold;font-stretch:normal;text-align:start;line-height:125%;letter-spacing:0px;word-spacing:0px;writing-mode:lr-tb;text-anchor:start;fill:#0055a3;fill-opacity:1;stroke:none;font-family:Ubuntu Mono;-inkscape-font-specification:Ubuntu Mono Bold"
           x="272.29483"
           y="876.07086"
           id="text3878"
           sodipodi:linespacing="125%"
           transform="scale(1.0571077,0.9459774)"><tspan
             sodipodi:role="line"
             id="tspan3880"
             x="272.29483"
             y="876.07086">A</tspan></text>
      </g>
    </g>
    <g
       id="g3981"
       inkscape:export-filename="/var/www/novosga/logo/novosga.png"
       inkscape:export-xdpi="90"
       inkscape:export-ydpi="90"
       transform="translate(-120,-523.1579)">
      <g
         transform="translate(154.14928,63.63961)"
         id="g3919">
        <g
           transform="matrix(0.63511119,0,0,0.63511119,-234.5942,309.57201)"
           id="g3963">
          <g
             id="g3887"
             transform="translate(415.77879,-53.740075)">
            <path
               sodipodi:nodetypes="cccccsccsccsc"
               inkscape:connector-curvature="0"
               id="path3889"
               d="m 103.08288,709.89894 c -12.165114,54.71151 3.07278,112.95728 41.22983,106.53207 C 99.841989,851.096 56.03268,790.5632 55.392068,762.85247 c 0.0035,-1.156 0.299321,-2.28875 0.484363,-3.41694 2.666629,4.76643 5.944215,9.15025 9.697454,13.10326 -1.322005,-10.38218 -0.310003,-21.22855 3.493041,-31.74702 0.393051,-1.08713 0.841894,-2.1777 1.283574,-3.23223 0.953639,3.36706 2.169106,6.66761 3.642687,9.83171 1.473063,-7.03368 4.077116,-13.94393 7.910049,-20.4863 0.584612,-0.99729 1.192366,-1.98952 1.81863,-2.94603 0.363735,3.90111 1.106714,7.75101 2.156239,11.51529 3.193489,-8.39833 8.07511,-16.30165 14.721985,-23.16521 0.8042,-0.83042 1.64765,-1.62929 2.48283,-2.41004 z"
               style="fill:#ffb732;fill-opacity:1;stroke:none" />
            <path
               style="fill:#c8ff00;fill-opacity:1;stroke:none"
               d="m 141.71506,704.47838 c -29.86317,47.4292 -35.1099,107.40616 2.98447,114.19314 -53.54101,17.68235 -74.430659,-54.06091 -65.710891,-80.37175 0.39217,-1.08745 1.051918,-2.05462 1.605734,-3.0548 0.907564,5.38574 2.519165,10.61671 4.72366,15.60203 2.248034,-10.22171 6.850218,-20.09532 13.970436,-28.72109 0.735861,-0.89153 1.525471,-1.76752 2.296171,-2.61196 -0.23476,3.49162 -0.20058,7.00871 0.12255,10.48412 3.75361,-6.12805 8.53075,-11.75936 14.34138,-16.6308 0.88605,-0.74243 1.7922,-1.47235 2.70376,-2.1624 -0.96995,3.79605 -1.56557,7.67149 -1.84367,11.56943 5.83285,-6.8343 13.08891,-12.63452 21.65749,-16.86169 1.03667,-0.51147 2.09976,-0.97996 3.14892,-1.43422 z"
               id="path3891"
               inkscape:connector-curvature="0"
               sodipodi:nodetypes="cccccsccsccsc" />
            <path
               style="fill:#5adff1;fill-opacity:1;stroke:none"
               d="m 189.89043,713.81564 c -47.10267,30.37558 -77.19317,82.52273 -45.53113,104.76591 -55.999046,-6.58888 -44.628481,-80.44132 -25.61089,-100.60628 0.81482,-0.82002 1.82134,-1.41797 2.7458,-2.09061 -1.45236,5.26502 -2.2012,10.68715 -2.30889,16.13708 6.3554,-8.3154 14.69753,-15.32091 24.79494,-20.13171 1.04359,-0.49723 2.12933,-0.9577 3.18461,-1.39755 -1.6877,3.06565 -3.14239,6.26799 -4.31753,9.55461 5.99083,-3.96893 12.69957,-7.05525 20.02409,-9.01629 1.11675,-0.29869 2.24641,-0.57751 3.36414,-0.81791 -2.48264,3.03105 -4.65955,6.29216 -6.55817,9.7078 8.17382,-3.73079 17.20082,-5.92312 26.75301,-6.1352 1.15571,-0.0257 2.31718,-10e-4 3.46003,0.0302 z"
               id="path3893"
               inkscape:connector-curvature="0"
               sodipodi:nodetypes="cccccsccsccsc" />
          </g>
          <g
             transform="matrix(-1,0,0,-1,693.58821,1580.0095)"
             id="g3895">
            <path
               style="fill:#ffb732;fill-opacity:1;stroke:none"
               d="m 103.08288,709.89894 c -12.165114,54.71151 3.07278,112.95728 41.22983,106.53207 C 99.841989,851.096 56.03268,790.5632 55.392068,762.85247 c 0.0035,-1.156 0.299321,-2.28875 0.484363,-3.41694 2.666629,4.76643 5.944215,9.15025 9.697454,13.10326 -1.322005,-10.38218 -0.310003,-21.22855 3.493041,-31.74702 0.393051,-1.08713 0.841894,-2.1777 1.283574,-3.23223 0.953639,3.36706 2.169106,6.66761 3.642687,9.83171 1.473063,-7.03368 4.077116,-13.94393 7.910049,-20.4863 0.584612,-0.99729 1.192366,-1.98952 1.81863,-2.94603 0.363735,3.90111 1.106714,7.75101 2.156239,11.51529 3.193489,-8.39833 8.07511,-16.30165 14.721985,-23.16521 0.8042,-0.83042 1.64765,-1.62929 2.48283,-2.41004 z"
               id="path3897"
               inkscape:connector-curvature="0"
               sodipodi:nodetypes="cccccsccsccsc" />
            <path
               sodipodi:nodetypes="cccccsccsccsc"
               inkscape:connector-curvature="0"
               id="path3899"
               d="m 141.71506,704.47838 c -29.86317,47.4292 -35.1099,107.40616 2.98447,114.19314 -53.54101,17.68235 -74.430659,-54.06091 -65.710891,-80.37175 0.39217,-1.08745 1.051918,-2.05462 1.605734,-3.0548 0.907564,5.38574 2.519165,10.61671 4.72366,15.60203 2.248034,-10.22171 6.850218,-20.09532 13.970436,-28.72109 0.735861,-0.89153 1.525471,-1.76752 2.296171,-2.61196 -0.23476,3.49162 -0.20058,7.00871 0.12255,10.48412 3.75361,-6.12805 8.53075,-11.75936 14.34138,-16.6308 0.88605,-0.74243 1.7922,-1.47235 2.70376,-2.1624 -0.96995,3.79605 -1.56557,7.67149 -1.84367,11.56943 5.83285,-6.8343 13.08891,-12.63452 21.65749,-16.86169 1.03667,-0.51147 2.09976,-0.97996 3.14892,-1.43422 z"
               style="fill:#c8ff00;fill-opacity:1;stroke:none" />
            <path
               sodipodi:nodetypes="cccccsccsccsc"
               inkscape:connector-curvature="0"
               id="path3901"
               d="m 189.89043,713.81564 c -47.10267,30.37558 -77.19317,82.52273 -45.53113,104.76591 -55.999046,-6.58888 -44.628481,-80.44132 -25.61089,-100.60628 0.81482,-0.82002 1.82134,-1.41797 2.7458,-2.09061 -1.45236,5.26502 -2.2012,10.68715 -2.30889,16.13708 6.3554,-8.3154 14.69753,-15.32091 24.79494,-20.13171 1.04359,-0.49723 2.12933,-0.9577 3.18461,-1.39755 -1.6877,3.06565 -3.14239,6.26799 -4.31753,9.55461 5.99083,-3.96893 12.69957,-7.05525 20.02409,-9.01629 1.11675,-0.29869 2.24641,-0.57751 3.36414,-0.81791 -2.48264,3.03105 -4.65955,6.29216 -6.55817,9.7078 8.17382,-3.73079 17.20082,-5.92312 26.75301,-6.1352 1.15571,-0.0257 2.31718,-10e-4 3.46003,0.0302 z"
               style="fill:#5adff1;fill-opacity:1;stroke:none" />
          </g>
          <g
             transform="matrix(0,1,-1,0,1371.5583,624.23)"
             id="g3903">
            <path
               style="fill:#ffb732;fill-opacity:1;stroke:none"
               d="m 103.08288,709.89894 c -12.165114,54.71151 3.07278,112.95728 41.22983,106.53207 C 99.841989,851.096 56.03268,790.5632 55.392068,762.85247 c 0.0035,-1.156 0.299321,-2.28875 0.484363,-3.41694 2.666629,4.76643 5.944215,9.15025 9.697454,13.10326 -1.322005,-10.38218 -0.310003,-21.22855 3.493041,-31.74702 0.393051,-1.08713 0.841894,-2.1777 1.283574,-3.23223 0.953639,3.36706 2.169106,6.66761 3.642687,9.83171 1.473063,-7.03368 4.077116,-13.94393 7.910049,-20.4863 0.584612,-0.99729 1.192366,-1.98952 1.81863,-2.94603 0.363735,3.90111 1.106714,7.75101 2.156239,11.51529 3.193489,-8.39833 8.07511,-16.30165 14.721985,-23.16521 0.8042,-0.83042 1.64765,-1.62929 2.48283,-2.41004 z"
               id="path3905"
               inkscape:connector-curvature="0"
               sodipodi:nodetypes="cccccsccsccsc" />
            <path
               sodipodi:nodetypes="cccccsccsccsc"
               inkscape:connector-curvature="0"
               id="path3907"
               d="m 141.71506,704.47838 c -29.86317,47.4292 -35.1099,107.40616 2.98447,114.19314 -53.54101,17.68235 -74.430659,-54.06091 -65.710891,-80.37175 0.39217,-1.08745 1.051918,-2.05462 1.605734,-3.0548 0.907564,5.38574 2.519165,10.61671 4.72366,15.60203 2.248034,-10.22171 6.850218,-20.09532 13.970436,-28.72109 0.735861,-0.89153 1.525471,-1.76752 2.296171,-2.61196 -0.23476,3.49162 -0.20058,7.00871 0.12255,10.48412 3.75361,-6.12805 8.53075,-11.75936 14.34138,-16.6308 0.88605,-0.74243 1.7922,-1.47235 2.70376,-2.1624 -0.96995,3.79605 -1.56557,7.67149 -1.84367,11.56943 5.83285,-6.8343 13.08891,-12.63452 21.65749,-16.86169 1.03667,-0.51147 2.09976,-0.97996 3.14892,-1.43422 z"
               style="fill:#c8ff00;fill-opacity:1;stroke:none" />
            <path
               sodipodi:nodetypes="cccccsccsccsc"
               inkscape:connector-curvature="0"
               id="path3909"
               d="m 189.89043,713.81564 c -47.10267,30.37558 -77.19317,82.52273 -45.53113,104.76591 -55.999046,-6.58888 -44.628481,-80.44132 -25.61089,-100.60628 0.81482,-0.82002 1.82134,-1.41797 2.7458,-2.09061 -1.45236,5.26502 -2.2012,10.68715 -2.30889,16.13708 6.3554,-8.3154 14.69753,-15.32091 24.79494,-20.13171 1.04359,-0.49723 2.12933,-0.9577 3.18461,-1.39755 -1.6877,3.06565 -3.14239,6.26799 -4.31753,9.55461 5.99083,-3.96893 12.69957,-7.05525 20.02409,-9.01629 1.11675,-0.29869 2.24641,-0.57751 3.36414,-0.81791 -2.48264,3.03105 -4.65955,6.29216 -6.55817,9.7078 8.17382,-3.73079 17.20082,-5.92312 26.75301,-6.1352 1.15571,-0.0257 2.31718,-10e-4 3.46003,0.0302 z"
               style="fill:#5adff1;fill-opacity:1;stroke:none" />
          </g>
          <g
             id="g3911"
             transform="matrix(0,-1,1,0,-262.19129,902.03942)">
            <path
               sodipodi:nodetypes="cccccsccsccsc"
               inkscape:connector-curvature="0"
               id="path3913"
               d="m 103.08288,709.89894 c -12.165114,54.71151 3.07278,112.95728 41.22983,106.53207 C 99.841989,851.096 56.03268,790.5632 55.392068,762.85247 c 0.0035,-1.156 0.299321,-2.28875 0.484363,-3.41694 2.666629,4.76643 5.944215,9.15025 9.697454,13.10326 -1.322005,-10.38218 -0.310003,-21.22855 3.493041,-31.74702 0.393051,-1.08713 0.841894,-2.1777 1.283574,-3.23223 0.953639,3.36706 2.169106,6.66761 3.642687,9.83171 1.473063,-7.03368 4.077116,-13.94393 7.910049,-20.4863 0.584612,-0.99729 1.192366,-1.98952 1.81863,-2.94603 0.363735,3.90111 1.106714,7.75101 2.156239,11.51529 3.193489,-8.39833 8.07511,-16.30165 14.721985,-23.16521 0.8042,-0.83042 1.64765,-1.62929 2.48283,-2.41004 z"
               style="fill:#ffb732;fill-opacity:1;stroke:none" />
            <path
               style="fill:#c8ff00;fill-opacity:1;stroke:none"
               d="m 141.71506,704.47838 c -29.86317,47.4292 -35.1099,107.40616 2.98447,114.19314 -53.54101,17.68235 -74.430659,-54.06091 -65.710891,-80.37175 0.39217,-1.08745 1.051918,-2.05462 1.605734,-3.0548 0.907564,5.38574 2.519165,10.61671 4.72366,15.60203 2.248034,-10.22171 6.850218,-20.09532 13.970436,-28.72109 0.735861,-0.89153 1.525471,-1.76752 2.296171,-2.61196 -0.23476,3.49162 -0.20058,7.00871 0.12255,10.48412 3.75361,-6.12805 8.53075,-11.75936 14.34138,-16.6308 0.88605,-0.74243 1.7922,-1.47235 2.70376,-2.1624 -0.96995,3.79605 -1.56557,7.67149 -1.84367,11.56943 5.83285,-6.8343 13.08891,-12.63452 21.65749,-16.86169 1.03667,-0.51147 2.09976,-0.97996 3.14892,-1.43422 z"
               id="path3915"
               inkscape:connector-curvature="0"
               sodipodi:nodetypes="cccccsccsccsc" />
            <path
               style="fill:#5adff1;fill-opacity:1;stroke:none"
               d="m 189.89043,713.81564 c -47.10267,30.37558 -77.19317,82.52273 -45.53113,104.76591 -55.999046,-6.58888 -44.628481,-80.44132 -25.61089,-100.60628 0.81482,-0.82002 1.82134,-1.41797 2.7458,-2.09061 -1.45236,5.26502 -2.2012,10.68715 -2.30889,16.13708 6.3554,-8.3154 14.69753,-15.32091 24.79494,-20.13171 1.04359,-0.49723 2.12933,-0.9577 3.18461,-1.39755 -1.6877,3.06565 -3.14239,6.26799 -4.31753,9.55461 5.99083,-3.96893 12.69957,-7.05525 20.02409,-9.01629 1.11675,-0.29869 2.24641,-0.57751 3.36414,-0.81791 -2.48264,3.03105 -4.65955,6.29216 -6.55817,9.7078 8.17382,-3.73079 17.20082,-5.92312 26.75301,-6.1352 1.15571,-0.0257 2.31718,-10e-4 3.46003,0.0302 z"
               id="path3917"
               inkscape:connector-curvature="0"
               sodipodi:nodetypes="cccccsccsccsc" />
          </g>
        </g>
      </g>
      <text
         xml:space="preserve"
         style="font-size:47.34656525px;font-style:normal;font-variant:normal;font-weight:bold;font-stretch:normal;text-align:start;line-height:125%;letter-spacing:0px;word-spacing:0px;writing-mode:lr-tb;text-anchor:start;fill:#565656;fill-opacity:1;stroke:none;font-family:Ubuntu Mono;-inkscape-font-specification:Ubuntu Mono Bold"
         x="442.34711"
         y="814.87335"
         id="text3945"
         sodipodi:linespacing="125%"><tspan
           sodipodi:role="line"
           id="tspan3947"
           x="442.34711"
           y="814.87335">novo</tspan></text>
      <g
         id="g3949"
         transform="translate(197.9899,80.610171)">
        <text
           transform="scale(1.0571077,0.9459774)"
           sodipodi:linespacing="125%"
           id="text3951"
           y="876.14343"
           x="203.63222"
           style="font-size:145.18161011px;font-style:normal;font-variant:normal;font-weight:bold;font-stretch:normal;text-align:start;line-height:125%;letter-spacing:0px;word-spacing:0px;writing-mode:lr-tb;text-anchor:start;fill:#0055a3;fill-opacity:1;stroke:none;font-family:Ubuntu Mono;-inkscape-font-specification:Ubuntu Mono Bold"
           xml:space="preserve"><tspan
             y="876.14343"
             x="203.63222"
             id="tspan3953"
             sodipodi:role="line">G</tspan></text>
        <text
           transform="scale(1.0571077,0.9459774)"
           xml:space="preserve"
           style="font-size:145.18161011px;font-style:normal;font-variant:normal;font-weight:bold;font-stretch:normal;text-align:start;line-height:125%;letter-spacing:0px;word-spacing:0px;writing-mode:lr-tb;text-anchor:start;fill:#0055a3;fill-opacity:1;stroke:none;font-family:Ubuntu Mono;-inkscape-font-specification:Ubuntu Mono Bold"
           x="139.96748"
           y="876.14343"
           id="text3955"
           sodipodi:linespacing="125%"><tspan
             sodipodi:role="line"
             id="tspan3957"
             x="139.96748"
             y="876.14343">S</tspan></text>
        <text
           transform="scale(1.0571077,0.9459774)"
           sodipodi:linespacing="125%"
           id="text3959"
           y="876.07086"
           x="272.29483"
           style="font-size:145.18161011px;font-style:normal;font-variant:normal;font-weight:bold;font-stretch:normal;text-align:start;line-height:125%;letter-spacing:0px;word-spacing:0px;writing-mode:lr-tb;text-anchor:start;fill:#0055a3;fill-opacity:1;stroke:none;font-family:Ubuntu Mono;-inkscape-font-specification:Ubuntu Mono Bold"
           xml:space="preserve"><tspan
             y="876.07086"
             x="272.29483"
             id="tspan3961"
             sodipodi:role="line">A</tspan></text>
      </g>
    </g>
    <g
       transform="matrix(0.7484753,0,0,0.7484753,-46.422325,70.892565)"
       inkscape:export-ydpi="90"
       inkscape:export-xdpi="90"
       inkscape:export-filename="/var/www/novosga/logo/novosga2.png"
       id="g4053">
      <g
         id="g4055"
         transform="translate(154.14928,63.63961)">
        <g
           id="g4057"
           transform="matrix(0.63511119,0,0,0.63511119,-234.5942,309.57201)">
          <g
             transform="translate(415.77879,-53.740075)"
             id="g4059">
            <path
               style="fill:#ffb732;fill-opacity:1;stroke:none"
               d="m 103.08288,709.89894 c -12.165114,54.71151 3.07278,112.95728 41.22983,106.53207 C 99.841989,851.096 56.03268,790.5632 55.392068,762.85247 c 0.0035,-1.156 0.299321,-2.28875 0.484363,-3.41694 2.666629,4.76643 5.944215,9.15025 9.697454,13.10326 -1.322005,-10.38218 -0.310003,-21.22855 3.493041,-31.74702 0.393051,-1.08713 0.841894,-2.1777 1.283574,-3.23223 0.953639,3.36706 2.169106,6.66761 3.642687,9.83171 1.473063,-7.03368 4.077116,-13.94393 7.910049,-20.4863 0.584612,-0.99729 1.192366,-1.98952 1.81863,-2.94603 0.363735,3.90111 1.106714,7.75101 2.156239,11.51529 3.193489,-8.39833 8.07511,-16.30165 14.721985,-23.16521 0.8042,-0.83042 1.64765,-1.62929 2.48283,-2.41004 z"
               id="path4061"
               inkscape:connector-curvature="0"
               sodipodi:nodetypes="cccccsccsccsc" />
            <path
               sodipodi:nodetypes="cccccsccsccsc"
               inkscape:connector-curvature="0"
               id="path4063"
               d="m 141.71506,704.47838 c -29.86317,47.4292 -35.1099,107.40616 2.98447,114.19314 -53.54101,17.68235 -74.430659,-54.06091 -65.710891,-80.37175 0.39217,-1.08745 1.051918,-2.05462 1.605734,-3.0548 0.907564,5.38574 2.519165,10.61671 4.72366,15.60203 2.248034,-10.22171 6.850218,-20.09532 13.970436,-28.72109 0.735861,-0.89153 1.525471,-1.76752 2.296171,-2.61196 -0.23476,3.49162 -0.20058,7.00871 0.12255,10.48412 3.75361,-6.12805 8.53075,-11.75936 14.34138,-16.6308 0.88605,-0.74243 1.7922,-1.47235 2.70376,-2.1624 -0.96995,3.79605 -1.56557,7.67149 -1.84367,11.56943 5.83285,-6.8343 13.08891,-12.63452 21.65749,-16.86169 1.03667,-0.51147 2.09976,-0.97996 3.14892,-1.43422 z"
               style="fill:#c8ff00;fill-opacity:1;stroke:none" />
            <path
               sodipodi:nodetypes="cccccsccsccsc"
               inkscape:connector-curvature="0"
               id="path4065"
               d="m 189.89043,713.81564 c -47.10267,30.37558 -77.19317,82.52273 -45.53113,104.76591 -55.999046,-6.58888 -44.628481,-80.44132 -25.61089,-100.60628 0.81482,-0.82002 1.82134,-1.41797 2.7458,-2.09061 -1.45236,5.26502 -2.2012,10.68715 -2.30889,16.13708 6.3554,-8.3154 14.69753,-15.32091 24.79494,-20.13171 1.04359,-0.49723 2.12933,-0.9577 3.18461,-1.39755 -1.6877,3.06565 -3.14239,6.26799 -4.31753,9.55461 5.99083,-3.96893 12.69957,-7.05525 20.02409,-9.01629 1.11675,-0.29869 2.24641,-0.57751 3.36414,-0.81791 -2.48264,3.03105 -4.65955,6.29216 -6.55817,9.7078 8.17382,-3.73079 17.20082,-5.92312 26.75301,-6.1352 1.15571,-0.0257 2.31718,-10e-4 3.46003,0.0302 z"
               style="fill:#5adff1;fill-opacity:1;stroke:none" />
          </g>
          <g
             id="g4067"
             transform="matrix(-1,0,0,-1,693.58821,1580.0095)">
            <path
               sodipodi:nodetypes="cccccsccsccsc"
               inkscape:connector-curvature="0"
               id="path4069"
               d="m 103.08288,709.89894 c -12.165114,54.71151 3.07278,112.95728 41.22983,106.53207 C 99.841989,851.096 56.03268,790.5632 55.392068,762.85247 c 0.0035,-1.156 0.299321,-2.28875 0.484363,-3.41694 2.666629,4.76643 5.944215,9.15025 9.697454,13.10326 -1.322005,-10.38218 -0.310003,-21.22855 3.493041,-31.74702 0.393051,-1.08713 0.841894,-2.1777 1.283574,-3.23223 0.953639,3.36706 2.169106,6.66761 3.642687,9.83171 1.473063,-7.03368 4.077116,-13.94393 7.910049,-20.4863 0.584612,-0.99729 1.192366,-1.98952 1.81863,-2.94603 0.363735,3.90111 1.106714,7.75101 2.156239,11.51529 3.193489,-8.39833 8.07511,-16.30165 14.721985,-23.16521 0.8042,-0.83042 1.64765,-1.62929 2.48283,-2.41004 z"
               style="fill:#ffb732;fill-opacity:1;stroke:none" />
            <path
               style="fill:#c8ff00;fill-opacity:1;stroke:none"
               d="m 141.71506,704.47838 c -29.86317,47.4292 -35.1099,107.40616 2.98447,114.19314 -53.54101,17.68235 -74.430659,-54.06091 -65.710891,-80.37175 0.39217,-1.08745 1.051918,-2.05462 1.605734,-3.0548 0.907564,5.38574 2.519165,10.61671 4.72366,15.60203 2.248034,-10.22171 6.850218,-20.09532 13.970436,-28.72109 0.735861,-0.89153 1.525471,-1.76752 2.296171,-2.61196 -0.23476,3.49162 -0.20058,7.00871 0.12255,10.48412 3.75361,-6.12805 8.53075,-11.75936 14.34138,-16.6308 0.88605,-0.74243 1.7922,-1.47235 2.70376,-2.1624 -0.96995,3.79605 -1.56557,7.67149 -1.84367,11.56943 5.83285,-6.8343 13.08891,-12.63452 21.65749,-16.86169 1.03667,-0.51147 2.09976,-0.97996 3.14892,-1.43422 z"
               id="path4071"
               inkscape:connector-curvature="0"
               sodipodi:nodetypes="cccccsccsccsc" />
            <path
               style="fill:#5adff1;fill-opacity:1;stroke:none"
               d="m 189.89043,713.81564 c -47.10267,30.37558 -77.19317,82.52273 -45.53113,104.76591 -55.999046,-6.58888 -44.628481,-80.44132 -25.61089,-100.60628 0.81482,-0.82002 1.82134,-1.41797 2.7458,-2.09061 -1.45236,5.26502 -2.2012,10.68715 -2.30889,16.13708 6.3554,-8.3154 14.69753,-15.32091 24.79494,-20.13171 1.04359,-0.49723 2.12933,-0.9577 3.18461,-1.39755 -1.6877,3.06565 -3.14239,6.26799 -4.31753,9.55461 5.99083,-3.96893 12.69957,-7.05525 20.02409,-9.01629 1.11675,-0.29869 2.24641,-0.57751 3.36414,-0.81791 -2.48264,3.03105 -4.65955,6.29216 -6.55817,9.7078 8.17382,-3.73079 17.20082,-5.92312 26.75301,-6.1352 1.15571,-0.0257 2.31718,-10e-4 3.46003,0.0302 z"
               id="path4073"
               inkscape:connector-curvature="0"
               sodipodi:nodetypes="cccccsccsccsc" />
          </g>
          <g
             id="g4075"
             transform="matrix(0,1,-1,0,1371.5583,624.23)">
            <path
               sodipodi:nodetypes="cccccsccsccsc"
               inkscape:connector-curvature="0"
               id="path4077"
               d="m 103.08288,709.89894 c -12.165114,54.71151 3.07278,112.95728 41.22983,106.53207 C 99.841989,851.096 56.03268,790.5632 55.392068,762.85247 c 0.0035,-1.156 0.299321,-2.28875 0.484363,-3.41694 2.666629,4.76643 5.944215,9.15025 9.697454,13.10326 -1.322005,-10.38218 -0.310003,-21.22855 3.493041,-31.74702 0.393051,-1.08713 0.841894,-2.1777 1.283574,-3.23223 0.953639,3.36706 2.169106,6.66761 3.642687,9.83171 1.473063,-7.03368 4.077116,-13.94393 7.910049,-20.4863 0.584612,-0.99729 1.192366,-1.98952 1.81863,-2.94603 0.363735,3.90111 1.106714,7.75101 2.156239,11.51529 3.193489,-8.39833 8.07511,-16.30165 14.721985,-23.16521 0.8042,-0.83042 1.64765,-1.62929 2.48283,-2.41004 z"
               style="fill:#ffb732;fill-opacity:1;stroke:none" />
            <path
               style="fill:#c8ff00;fill-opacity:1;stroke:none"
               d="m 141.71506,704.47838 c -29.86317,47.4292 -35.1099,107.40616 2.98447,114.19314 -53.54101,17.68235 -74.430659,-54.06091 -65.710891,-80.37175 0.39217,-1.08745 1.051918,-2.05462 1.605734,-3.0548 0.907564,5.38574 2.519165,10.61671 4.72366,15.60203 2.248034,-10.22171 6.850218,-20.09532 13.970436,-28.72109 0.735861,-0.89153 1.525471,-1.76752 2.296171,-2.61196 -0.23476,3.49162 -0.20058,7.00871 0.12255,10.48412 3.75361,-6.12805 8.53075,-11.75936 14.34138,-16.6308 0.88605,-0.74243 1.7922,-1.47235 2.70376,-2.1624 -0.96995,3.79605 -1.56557,7.67149 -1.84367,11.56943 5.83285,-6.8343 13.08891,-12.63452 21.65749,-16.86169 1.03667,-0.51147 2.09976,-0.97996 3.14892,-1.43422 z"
               id="path4079"
               inkscape:connector-curvature="0"
               sodipodi:nodetypes="cccccsccsccsc" />
            <path
               style="fill:#5adff1;fill-opacity:1;stroke:none"
               d="m 189.89043,713.81564 c -47.10267,30.37558 -77.19317,82.52273 -45.53113,104.76591 -55.999046,-6.58888 -44.628481,-80.44132 -25.61089,-100.60628 0.81482,-0.82002 1.82134,-1.41797 2.7458,-2.09061 -1.45236,5.26502 -2.2012,10.68715 -2.30889,16.13708 6.3554,-8.3154 14.69753,-15.32091 24.79494,-20.13171 1.04359,-0.49723 2.12933,-0.9577 3.18461,-1.39755 -1.6877,3.06565 -3.14239,6.26799 -4.31753,9.55461 5.99083,-3.96893 12.69957,-7.05525 20.02409,-9.01629 1.11675,-0.29869 2.24641,-0.57751 3.36414,-0.81791 -2.48264,3.03105 -4.65955,6.29216 -6.55817,9.7078 8.17382,-3.73079 17.20082,-5.92312 26.75301,-6.1352 1.15571,-0.0257 2.31718,-10e-4 3.46003,0.0302 z"
               id="path4081"
               inkscape:connector-curvature="0"
               sodipodi:nodetypes="cccccsccsccsc" />
          </g>
          <g
             transform="matrix(0,-1,1,0,-262.19129,902.03942)"
             id="g4083">
            <path
               style="fill:#ffb732;fill-opacity:1;stroke:none"
               d="m 103.08288,709.89894 c -12.165114,54.71151 3.07278,112.95728 41.22983,106.53207 C 99.841989,851.096 56.03268,790.5632 55.392068,762.85247 c 0.0035,-1.156 0.299321,-2.28875 0.484363,-3.41694 2.666629,4.76643 5.944215,9.15025 9.697454,13.10326 -1.322005,-10.38218 -0.310003,-21.22855 3.493041,-31.74702 0.393051,-1.08713 0.841894,-2.1777 1.283574,-3.23223 0.953639,3.36706 2.169106,6.66761 3.642687,9.83171 1.473063,-7.03368 4.077116,-13.94393 7.910049,-20.4863 0.584612,-0.99729 1.192366,-1.98952 1.81863,-2.94603 0.363735,3.90111 1.106714,7.75101 2.156239,11.51529 3.193489,-8.39833 8.07511,-16.30165 14.721985,-23.16521 0.8042,-0.83042 1.64765,-1.62929 2.48283,-2.41004 z"
               id="path4085"
               inkscape:connector-curvature="0"
               sodipodi:nodetypes="cccccsccsccsc" />
            <path
               sodipodi:nodetypes="cccccsccsccsc"
               inkscape:connector-curvature="0"
               id="path4087"
               d="m 141.71506,704.47838 c -29.86317,47.4292 -35.1099,107.40616 2.98447,114.19314 -53.54101,17.68235 -74.430659,-54.06091 -65.710891,-80.37175 0.39217,-1.08745 1.051918,-2.05462 1.605734,-3.0548 0.907564,5.38574 2.519165,10.61671 4.72366,15.60203 2.248034,-10.22171 6.850218,-20.09532 13.970436,-28.72109 0.735861,-0.89153 1.525471,-1.76752 2.296171,-2.61196 -0.23476,3.49162 -0.20058,7.00871 0.12255,10.48412 3.75361,-6.12805 8.53075,-11.75936 14.34138,-16.6308 0.88605,-0.74243 1.7922,-1.47235 2.70376,-2.1624 -0.96995,3.79605 -1.56557,7.67149 -1.84367,11.56943 5.83285,-6.8343 13.08891,-12.63452 21.65749,-16.86169 1.03667,-0.51147 2.09976,-0.97996 3.14892,-1.43422 z"
               style="fill:#c8ff00;fill-opacity:1;stroke:none" />
            <path
               sodipodi:nodetypes="cccccsccsccsc"
               inkscape:connector-curvature="0"
               id="path4089"
               d="m 189.89043,713.81564 c -47.10267,30.37558 -77.19317,82.52273 -45.53113,104.76591 -55.999046,-6.58888 -44.628481,-80.44132 -25.61089,-100.60628 0.81482,-0.82002 1.82134,-1.41797 2.7458,-2.09061 -1.45236,5.26502 -2.2012,10.68715 -2.30889,16.13708 6.3554,-8.3154 14.69753,-15.32091 24.79494,-20.13171 1.04359,-0.49723 2.12933,-0.9577 3.18461,-1.39755 -1.6877,3.06565 -3.14239,6.26799 -4.31753,9.55461 5.99083,-3.96893 12.69957,-7.05525 20.02409,-9.01629 1.11675,-0.29869 2.24641,-0.57751 3.36414,-0.81791 -2.48264,3.03105 -4.65955,6.29216 -6.55817,9.7078 8.17382,-3.73079 17.20082,-5.92312 26.75301,-6.1352 1.15571,-0.0257 2.31718,-10e-4 3.46003,0.0302 z"
               style="fill:#5adff1;fill-opacity:1;stroke:none" />
          </g>
        </g>
      </g>
      <text
         sodipodi:linespacing="125%"
         id="text4091"
         y="814.87335"
         x="442.34711"
         style="font-size:47.34656525px;font-style:normal;font-variant:normal;font-weight:bold;font-stretch:normal;text-align:start;line-height:125%;letter-spacing:0px;word-spacing:0px;writing-mode:lr-tb;text-anchor:start;fill:#565656;fill-opacity:1;stroke:none;font-family:Ubuntu Mono;-inkscape-font-specification:Ubuntu Mono Bold"
         xml:space="preserve"><tspan
           y="814.87335"
           x="442.34711"
           id="tspan4093"
           sodipodi:role="line">novo</tspan></text>
      <g
         transform="translate(197.9899,80.610171)"
         id="g4095">
        <text
           xml:space="preserve"
           style="font-size:145.18161011px;font-style:normal;font-variant:normal;font-weight:bold;font-stretch:normal;text-align:start;line-height:125%;letter-spacing:0px;word-spacing:0px;writing-mode:lr-tb;text-anchor:start;fill:#0055a3;fill-opacity:1;stroke:none;font-family:Ubuntu Mono;-inkscape-font-specification:Ubuntu Mono Bold"
           x="203.63222"
           y="876.14343"
           id="text4097"
           sodipodi:linespacing="125%"
           transform="scale(1.0571077,0.9459774)"><tspan
             sodipodi:role="line"
             id="tspan4099"
             x="203.63222"
             y="876.14343">G</tspan></text>
        <text
           sodipodi:linespacing="125%"
           id="text4101"
           y="876.14343"
           x="139.96748"
           style="font-size:145.18161011px;font-style:normal;font-variant:normal;font-weight:bold;font-stretch:normal;text-align:start;line-height:125%;letter-spacing:0px;word-spacing:0px;writing-mode:lr-tb;text-anchor:start;fill:#0055a3;fill-opacity:1;stroke:none;font-family:Ubuntu Mono;-inkscape-font-specification:Ubuntu Mono Bold"
           xml:space="preserve"
           transform="scale(1.0571077,0.9459774)"><tspan
             y="876.14343"
             x="139.96748"
             id="tspan4103"
             sodipodi:role="line">S</tspan></text>
        <text
           xml:space="preserve"
           style="font-size:145.18161011px;font-style:normal;font-variant:normal;font-weight:bold;font-stretch:normal;text-align:start;line-height:125%;letter-spacing:0px;word-spacing:0px;writing-mode:lr-tb;text-anchor:start;fill:#0055a3;fill-opacity:1;stroke:none;font-family:Ubuntu Mono;-inkscape-font-specification:Ubuntu Mono Bold"
           x="272.29483"
           y="876.07086"
           id="text4105"
           sodipodi:linespacing="125%"
           transform="scale(1.0571077,0.9459774)"><tspan
             sodipodi:role="line"
             id="tspan4107"
             x="272.29483"
             y="876.07086">A</tspan></text>
      </g>
    </g>
    <g
       id="g4228"
       transform="translate(-323.68421,-128.94737)">
      <g
         inkscape:export-ydpi="90"
         inkscape:export-xdpi="90"
         inkscape:export-filename="/var/www/novosga/logo/novosga3.png"
         transform="matrix(0.26255247,0,0,0.26255247,440.29848,739.99751)"
         id="g4111">
        <g
           transform="matrix(0.63511119,0,0,0.63511119,-234.5942,309.57201)"
           id="g4113">
          <g
             id="g4115"
             transform="translate(415.77879,-53.740075)">
            <path
               sodipodi:nodetypes="cccccsccsccsc"
               inkscape:connector-curvature="0"
               id="path4117"
               d="m 103.08288,709.89894 c -12.165114,54.71151 3.07278,112.95728 41.22983,106.53207 C 99.841989,851.096 56.03268,790.5632 55.392068,762.85247 c 0.0035,-1.156 0.299321,-2.28875 0.484363,-3.41694 2.666629,4.76643 5.944215,9.15025 9.697454,13.10326 -1.322005,-10.38218 -0.310003,-21.22855 3.493041,-31.74702 0.393051,-1.08713 0.841894,-2.1777 1.283574,-3.23223 0.953639,3.36706 2.169106,6.66761 3.642687,9.83171 1.473063,-7.03368 4.077116,-13.94393 7.910049,-20.4863 0.584612,-0.99729 1.192366,-1.98952 1.81863,-2.94603 0.363735,3.90111 1.106714,7.75101 2.156239,11.51529 3.193489,-8.39833 8.07511,-16.30165 14.721985,-23.16521 0.8042,-0.83042 1.64765,-1.62929 2.48283,-2.41004 z"
               style="fill:#ffb732;fill-opacity:1;stroke:none" />
            <path
               style="fill:#c8ff00;fill-opacity:1;stroke:none"
               d="m 141.71506,704.47838 c -29.86317,47.4292 -35.1099,107.40616 2.98447,114.19314 -53.54101,17.68235 -74.430659,-54.06091 -65.710891,-80.37175 0.39217,-1.08745 1.051918,-2.05462 1.605734,-3.0548 0.907564,5.38574 2.519165,10.61671 4.72366,15.60203 2.248034,-10.22171 6.850218,-20.09532 13.970436,-28.72109 0.735861,-0.89153 1.525471,-1.76752 2.296171,-2.61196 -0.23476,3.49162 -0.20058,7.00871 0.12255,10.48412 3.75361,-6.12805 8.53075,-11.75936 14.34138,-16.6308 0.88605,-0.74243 1.7922,-1.47235 2.70376,-2.1624 -0.96995,3.79605 -1.56557,7.67149 -1.84367,11.56943 5.83285,-6.8343 13.08891,-12.63452 21.65749,-16.86169 1.03667,-0.51147 2.09976,-0.97996 3.14892,-1.43422 z"
               id="path4119"
               inkscape:connector-curvature="0"
               sodipodi:nodetypes="cccccsccsccsc" />
            <path
               style="fill:#5adff1;fill-opacity:1;stroke:none"
               d="m 189.89043,713.81564 c -47.10267,30.37558 -77.19317,82.52273 -45.53113,104.76591 -55.999046,-6.58888 -44.628481,-80.44132 -25.61089,-100.60628 0.81482,-0.82002 1.82134,-1.41797 2.7458,-2.09061 -1.45236,5.26502 -2.2012,10.68715 -2.30889,16.13708 6.3554,-8.3154 14.69753,-15.32091 24.79494,-20.13171 1.04359,-0.49723 2.12933,-0.9577 3.18461,-1.39755 -1.6877,3.06565 -3.14239,6.26799 -4.31753,9.55461 5.99083,-3.96893 12.69957,-7.05525 20.02409,-9.01629 1.11675,-0.29869 2.24641,-0.57751 3.36414,-0.81791 -2.48264,3.03105 -4.65955,6.29216 -6.55817,9.7078 8.17382,-3.73079 17.20082,-5.92312 26.75301,-6.1352 1.15571,-0.0257 2.31718,-10e-4 3.46003,0.0302 z"
               id="path4121"
               inkscape:connector-curvature="0"
               sodipodi:nodetypes="cccccsccsccsc" />
          </g>
          <g
             transform="matrix(-1,0,0,-1,693.58821,1580.0095)"
             id="g4123">
            <path
               style="fill:#ffb732;fill-opacity:1;stroke:none"
               d="m 103.08288,709.89894 c -12.165114,54.71151 3.07278,112.95728 41.22983,106.53207 C 99.841989,851.096 56.03268,790.5632 55.392068,762.85247 c 0.0035,-1.156 0.299321,-2.28875 0.484363,-3.41694 2.666629,4.76643 5.944215,9.15025 9.697454,13.10326 -1.322005,-10.38218 -0.310003,-21.22855 3.493041,-31.74702 0.393051,-1.08713 0.841894,-2.1777 1.283574,-3.23223 0.953639,3.36706 2.169106,6.66761 3.642687,9.83171 1.473063,-7.03368 4.077116,-13.94393 7.910049,-20.4863 0.584612,-0.99729 1.192366,-1.98952 1.81863,-2.94603 0.363735,3.90111 1.106714,7.75101 2.156239,11.51529 3.193489,-8.39833 8.07511,-16.30165 14.721985,-23.16521 0.8042,-0.83042 1.64765,-1.62929 2.48283,-2.41004 z"
               id="path4125"
               inkscape:connector-curvature="0"
               sodipodi:nodetypes="cccccsccsccsc" />
            <path
               sodipodi:nodetypes="cccccsccsccsc"
               inkscape:connector-curvature="0"
               id="path4127"
               d="m 141.71506,704.47838 c -29.86317,47.4292 -35.1099,107.40616 2.98447,114.19314 -53.54101,17.68235 -74.430659,-54.06091 -65.710891,-80.37175 0.39217,-1.08745 1.051918,-2.05462 1.605734,-3.0548 0.907564,5.38574 2.519165,10.61671 4.72366,15.60203 2.248034,-10.22171 6.850218,-20.09532 13.970436,-28.72109 0.735861,-0.89153 1.525471,-1.76752 2.296171,-2.61196 -0.23476,3.49162 -0.20058,7.00871 0.12255,10.48412 3.75361,-6.12805 8.53075,-11.75936 14.34138,-16.6308 0.88605,-0.74243 1.7922,-1.47235 2.70376,-2.1624 -0.96995,3.79605 -1.56557,7.67149 -1.84367,11.56943 5.83285,-6.8343 13.08891,-12.63452 21.65749,-16.86169 1.03667,-0.51147 2.09976,-0.97996 3.14892,-1.43422 z"
               style="fill:#c8ff00;fill-opacity:1;stroke:none" />
            <path
               sodipodi:nodetypes="cccccsccsccsc"
               inkscape:connector-curvature="0"
               id="path4129"
               d="m 189.89043,713.81564 c -47.10267,30.37558 -77.19317,82.52273 -45.53113,104.76591 -55.999046,-6.58888 -44.628481,-80.44132 -25.61089,-100.60628 0.81482,-0.82002 1.82134,-1.41797 2.7458,-2.09061 -1.45236,5.26502 -2.2012,10.68715 -2.30889,16.13708 6.3554,-8.3154 14.69753,-15.32091 24.79494,-20.13171 1.04359,-0.49723 2.12933,-0.9577 3.18461,-1.39755 -1.6877,3.06565 -3.14239,6.26799 -4.31753,9.55461 5.99083,-3.96893 12.69957,-7.05525 20.02409,-9.01629 1.11675,-0.29869 2.24641,-0.57751 3.36414,-0.81791 -2.48264,3.03105 -4.65955,6.29216 -6.55817,9.7078 8.17382,-3.73079 17.20082,-5.92312 26.75301,-6.1352 1.15571,-0.0257 2.31718,-10e-4 3.46003,0.0302 z"
               style="fill:#5adff1;fill-opacity:1;stroke:none" />
          </g>
          <g
             transform="matrix(0,1,-1,0,1371.5583,624.23)"
             id="g4131">
            <path
               style="fill:#ffb732;fill-opacity:1;stroke:none"
               d="m 103.08288,709.89894 c -12.165114,54.71151 3.07278,112.95728 41.22983,106.53207 C 99.841989,851.096 56.03268,790.5632 55.392068,762.85247 c 0.0035,-1.156 0.299321,-2.28875 0.484363,-3.41694 2.666629,4.76643 5.944215,9.15025 9.697454,13.10326 -1.322005,-10.38218 -0.310003,-21.22855 3.493041,-31.74702 0.393051,-1.08713 0.841894,-2.1777 1.283574,-3.23223 0.953639,3.36706 2.169106,6.66761 3.642687,9.83171 1.473063,-7.03368 4.077116,-13.94393 7.910049,-20.4863 0.584612,-0.99729 1.192366,-1.98952 1.81863,-2.94603 0.363735,3.90111 1.106714,7.75101 2.156239,11.51529 3.193489,-8.39833 8.07511,-16.30165 14.721985,-23.16521 0.8042,-0.83042 1.64765,-1.62929 2.48283,-2.41004 z"
               id="path4133"
               inkscape:connector-curvature="0"
               sodipodi:nodetypes="cccccsccsccsc" />
            <path
               sodipodi:nodetypes="cccccsccsccsc"
               inkscape:connector-curvature="0"
               id="path4135"
               d="m 141.71506,704.47838 c -29.86317,47.4292 -35.1099,107.40616 2.98447,114.19314 -53.54101,17.68235 -74.430659,-54.06091 -65.710891,-80.37175 0.39217,-1.08745 1.051918,-2.05462 1.605734,-3.0548 0.907564,5.38574 2.519165,10.61671 4.72366,15.60203 2.248034,-10.22171 6.850218,-20.09532 13.970436,-28.72109 0.735861,-0.89153 1.525471,-1.76752 2.296171,-2.61196 -0.23476,3.49162 -0.20058,7.00871 0.12255,10.48412 3.75361,-6.12805 8.53075,-11.75936 14.34138,-16.6308 0.88605,-0.74243 1.7922,-1.47235 2.70376,-2.1624 -0.96995,3.79605 -1.56557,7.67149 -1.84367,11.56943 5.83285,-6.8343 13.08891,-12.63452 21.65749,-16.86169 1.03667,-0.51147 2.09976,-0.97996 3.14892,-1.43422 z"
               style="fill:#c8ff00;fill-opacity:1;stroke:none" />
            <path
               sodipodi:nodetypes="cccccsccsccsc"
               inkscape:connector-curvature="0"
               id="path4137"
               d="m 189.89043,713.81564 c -47.10267,30.37558 -77.19317,82.52273 -45.53113,104.76591 -55.999046,-6.58888 -44.628481,-80.44132 -25.61089,-100.60628 0.81482,-0.82002 1.82134,-1.41797 2.7458,-2.09061 -1.45236,5.26502 -2.2012,10.68715 -2.30889,16.13708 6.3554,-8.3154 14.69753,-15.32091 24.79494,-20.13171 1.04359,-0.49723 2.12933,-0.9577 3.18461,-1.39755 -1.6877,3.06565 -3.14239,6.26799 -4.31753,9.55461 5.99083,-3.96893 12.69957,-7.05525 20.02409,-9.01629 1.11675,-0.29869 2.24641,-0.57751 3.36414,-0.81791 -2.48264,3.03105 -4.65955,6.29216 -6.55817,9.7078 8.17382,-3.73079 17.20082,-5.92312 26.75301,-6.1352 1.15571,-0.0257 2.31718,-10e-4 3.46003,0.0302 z"
               style="fill:#5adff1;fill-opacity:1;stroke:none" />
          </g>
          <g
             id="g4139"
             transform="matrix(0,-1,1,0,-262.19129,902.03942)">
            <path
               sodipodi:nodetypes="cccccsccsccsc"
               inkscape:connector-curvature="0"
               id="path4141"
               d="m 103.08288,709.89894 c -12.165114,54.71151 3.07278,112.95728 41.22983,106.53207 C 99.841989,851.096 56.03268,790.5632 55.392068,762.85247 c 0.0035,-1.156 0.299321,-2.28875 0.484363,-3.41694 2.666629,4.76643 5.944215,9.15025 9.697454,13.10326 -1.322005,-10.38218 -0.310003,-21.22855 3.493041,-31.74702 0.393051,-1.08713 0.841894,-2.1777 1.283574,-3.23223 0.953639,3.36706 2.169106,6.66761 3.642687,9.83171 1.473063,-7.03368 4.077116,-13.94393 7.910049,-20.4863 0.584612,-0.99729 1.192366,-1.98952 1.81863,-2.94603 0.363735,3.90111 1.106714,7.75101 2.156239,11.51529 3.193489,-8.39833 8.07511,-16.30165 14.721985,-23.16521 0.8042,-0.83042 1.64765,-1.62929 2.48283,-2.41004 z"
               style="fill:#ffb732;fill-opacity:1;stroke:none" />
            <path
               style="fill:#c8ff00;fill-opacity:1;stroke:none"
               d="m 141.71506,704.47838 c -29.86317,47.4292 -35.1099,107.40616 2.98447,114.19314 -53.54101,17.68235 -74.430659,-54.06091 -65.710891,-80.37175 0.39217,-1.08745 1.051918,-2.05462 1.605734,-3.0548 0.907564,5.38574 2.519165,10.61671 4.72366,15.60203 2.248034,-10.22171 6.850218,-20.09532 13.970436,-28.72109 0.735861,-0.89153 1.525471,-1.76752 2.296171,-2.61196 -0.23476,3.49162 -0.20058,7.00871 0.12255,10.48412 3.75361,-6.12805 8.53075,-11.75936 14.34138,-16.6308 0.88605,-0.74243 1.7922,-1.47235 2.70376,-2.1624 -0.96995,3.79605 -1.56557,7.67149 -1.84367,11.56943 5.83285,-6.8343 13.08891,-12.63452 21.65749,-16.86169 1.03667,-0.51147 2.09976,-0.97996 3.14892,-1.43422 z"
               id="path4143"
               inkscape:connector-curvature="0"
               sodipodi:nodetypes="cccccsccsccsc" />
            <path
               style="fill:#5adff1;fill-opacity:1;stroke:none"
               d="m 189.89043,713.81564 c -47.10267,30.37558 -77.19317,82.52273 -45.53113,104.76591 -55.999046,-6.58888 -44.628481,-80.44132 -25.61089,-100.60628 0.81482,-0.82002 1.82134,-1.41797 2.7458,-2.09061 -1.45236,5.26502 -2.2012,10.68715 -2.30889,16.13708 6.3554,-8.3154 14.69753,-15.32091 24.79494,-20.13171 1.04359,-0.49723 2.12933,-0.9577 3.18461,-1.39755 -1.6877,3.06565 -3.14239,6.26799 -4.31753,9.55461 5.99083,-3.96893 12.69957,-7.05525 20.02409,-9.01629 1.11675,-0.29869 2.24641,-0.57751 3.36414,-0.81791 -2.48264,3.03105 -4.65955,6.29216 -6.55817,9.7078 8.17382,-3.73079 17.20082,-5.92312 26.75301,-6.1352 1.15571,-0.0257 2.31718,-10e-4 3.46003,0.0302 z"
               id="path4145"
               inkscape:connector-curvature="0"
               sodipodi:nodetypes="cccccsccsccsc" />
          </g>
        </g>
      </g>
      <text
         inkscape:export-ydpi="90"
         inkscape:export-xdpi="90"
         inkscape:export-filename="/var/www/novosga/logo/novosga3.png"
         xml:space="preserve"
         style="font-size:12.43095779px;font-style:normal;font-variant:normal;font-weight:bold;font-stretch:normal;text-align:start;line-height:125%;letter-spacing:0px;word-spacing:0px;writing-mode:lr-tb;text-anchor:start;fill:#565656;fill-opacity:1;stroke:none;font-family:Ubuntu Mono;-inkscape-font-specification:Ubuntu Mono Bold"
         x="519.91119"
         y="935.26294"
         id="text4147"
         sodipodi:linespacing="125%"><tspan
           sodipodi:role="line"
           id="tspan4149"
           x="519.91119"
           y="935.26294">novo</tspan></text>
      <g
         inkscape:export-ydpi="90"
         inkscape:export-xdpi="90"
         inkscape:export-filename="/var/www/novosga/logo/novosga3.png"
         id="g4151"
         transform="matrix(0.26255247,0,0,0.26255247,455.75465,742.48033)">
        <text
           transform="scale(1.0571077,0.9459774)"
           sodipodi:linespacing="125%"
           id="text4153"
           y="876.14343"
           x="203.63222"
           style="font-size:145.18161011px;font-style:normal;font-variant:normal;font-weight:bold;font-stretch:normal;text-align:start;line-height:125%;letter-spacing:0px;word-spacing:0px;writing-mode:lr-tb;text-anchor:start;fill:#0055a3;fill-opacity:1;stroke:none;font-family:Ubuntu Mono;-inkscape-font-specification:Ubuntu Mono Bold"
           xml:space="preserve"><tspan
             y="876.14343"
             x="203.63222"
             id="tspan4155"
             sodipodi:role="line">G</tspan></text>
        <text
           transform="scale(1.0571077,0.9459774)"
           xml:space="preserve"
           style="font-size:145.18161011px;font-style:normal;font-variant:normal;font-weight:bold;font-stretch:normal;text-align:start;line-height:125%;letter-spacing:0px;word-spacing:0px;writing-mode:lr-tb;text-anchor:start;fill:#0055a3;fill-opacity:1;stroke:none;font-family:Ubuntu Mono;-inkscape-font-specification:Ubuntu Mono Bold"
           x="139.96748"
           y="876.14343"
           id="text4157"
           sodipodi:linespacing="125%"><tspan
             sodipodi:role="line"
             id="tspan4159"
             x="139.96748"
             y="876.14343">S</tspan></text>
        <text
           transform="scale(1.0571077,0.9459774)"
           sodipodi:linespacing="125%"
           id="text4161"
           y="876.07086"
           x="272.29483"
           style="font-size:145.18161011px;font-style:normal;font-variant:normal;font-weight:bold;font-stretch:normal;text-align:start;line-height:125%;letter-spacing:0px;word-spacing:0px;writing-mode:lr-tb;text-anchor:start;fill:#0055a3;fill-opacity:1;stroke:none;font-family:Ubuntu Mono;-inkscape-font-specification:Ubuntu Mono Bold"
           xml:space="preserve"><tspan
             y="876.07086"
             x="272.29483"
             id="tspan4163"
             sodipodi:role="line">A</tspan></text>
      </g>
    </g>
    <g
       inkscape:export-ydpi="90"
       inkscape:export-xdpi="90"
       inkscape:export-filename="/var/www/novosga/logo/favicon.png"
       transform="matrix(0.33620875,0,0,0.33620875,294.72977,557.39619)"
       id="g4192">
      <g
         transform="matrix(0.63511119,0,0,0.63511119,-234.5942,309.57201)"
         id="g4194">
        <g
           id="g4196"
           transform="translate(415.77879,-53.740075)">
          <path
             sodipodi:nodetypes="cccccsccsccsc"
             inkscape:connector-curvature="0"
             id="path4198"
             d="m 103.08288,709.89894 c -12.165114,54.71151 3.07278,112.95728 41.22983,106.53207 C 99.841989,851.096 56.03268,790.5632 55.392068,762.85247 c 0.0035,-1.156 0.299321,-2.28875 0.484363,-3.41694 2.666629,4.76643 5.944215,9.15025 9.697454,13.10326 -1.322005,-10.38218 -0.310003,-21.22855 3.493041,-31.74702 0.393051,-1.08713 0.841894,-2.1777 1.283574,-3.23223 0.953639,3.36706 2.169106,6.66761 3.642687,9.83171 1.473063,-7.03368 4.077116,-13.94393 7.910049,-20.4863 0.584612,-0.99729 1.192366,-1.98952 1.81863,-2.94603 0.363735,3.90111 1.106714,7.75101 2.156239,11.51529 3.193489,-8.39833 8.07511,-16.30165 14.721985,-23.16521 0.8042,-0.83042 1.64765,-1.62929 2.48283,-2.41004 z"
             style="fill:#ffb732;fill-opacity:1;stroke:none" />
          <path
             style="fill:#c8ff00;fill-opacity:1;stroke:none"
             d="m 141.71506,704.47838 c -29.86317,47.4292 -35.1099,107.40616 2.98447,114.19314 -53.54101,17.68235 -74.430659,-54.06091 -65.710891,-80.37175 0.39217,-1.08745 1.051918,-2.05462 1.605734,-3.0548 0.907564,5.38574 2.519165,10.61671 4.72366,15.60203 2.248034,-10.22171 6.850218,-20.09532 13.970436,-28.72109 0.735861,-0.89153 1.525471,-1.76752 2.296171,-2.61196 -0.23476,3.49162 -0.20058,7.00871 0.12255,10.48412 3.75361,-6.12805 8.53075,-11.75936 14.34138,-16.6308 0.88605,-0.74243 1.7922,-1.47235 2.70376,-2.1624 -0.96995,3.79605 -1.56557,7.67149 -1.84367,11.56943 5.83285,-6.8343 13.08891,-12.63452 21.65749,-16.86169 1.03667,-0.51147 2.09976,-0.97996 3.14892,-1.43422 z"
             id="path4200"
             inkscape:connector-curvature="0"
             sodipodi:nodetypes="cccccsccsccsc" />
          <path
             style="fill:#5adff1;fill-opacity:1;stroke:none"
             d="m 189.89043,713.81564 c -47.10267,30.37558 -77.19317,82.52273 -45.53113,104.76591 -55.999046,-6.58888 -44.628481,-80.44132 -25.61089,-100.60628 0.81482,-0.82002 1.82134,-1.41797 2.7458,-2.09061 -1.45236,5.26502 -2.2012,10.68715 -2.30889,16.13708 6.3554,-8.3154 14.69753,-15.32091 24.79494,-20.13171 1.04359,-0.49723 2.12933,-0.9577 3.18461,-1.39755 -1.6877,3.06565 -3.14239,6.26799 -4.31753,9.55461 5.99083,-3.96893 12.69957,-7.05525 20.02409,-9.01629 1.11675,-0.29869 2.24641,-0.57751 3.36414,-0.81791 -2.48264,3.03105 -4.65955,6.29216 -6.55817,9.7078 8.17382,-3.73079 17.20082,-5.92312 26.75301,-6.1352 1.15571,-0.0257 2.31718,-10e-4 3.46003,0.0302 z"
             id="path4202"
             inkscape:connector-curvature="0"
             sodipodi:nodetypes="cccccsccsccsc" />
        </g>
        <g
           transform="matrix(-1,0,0,-1,693.58821,1580.0095)"
           id="g4204">
          <path
             style="fill:#ffb732;fill-opacity:1;stroke:none"
             d="m 103.08288,709.89894 c -12.165114,54.71151 3.07278,112.95728 41.22983,106.53207 C 99.841989,851.096 56.03268,790.5632 55.392068,762.85247 c 0.0035,-1.156 0.299321,-2.28875 0.484363,-3.41694 2.666629,4.76643 5.944215,9.15025 9.697454,13.10326 -1.322005,-10.38218 -0.310003,-21.22855 3.493041,-31.74702 0.393051,-1.08713 0.841894,-2.1777 1.283574,-3.23223 0.953639,3.36706 2.169106,6.66761 3.642687,9.83171 1.473063,-7.03368 4.077116,-13.94393 7.910049,-20.4863 0.584612,-0.99729 1.192366,-1.98952 1.81863,-2.94603 0.363735,3.90111 1.106714,7.75101 2.156239,11.51529 3.193489,-8.39833 8.07511,-16.30165 14.721985,-23.16521 0.8042,-0.83042 1.64765,-1.62929 2.48283,-2.41004 z"
             id="path4206"
             inkscape:connector-curvature="0"
             sodipodi:nodetypes="cccccsccsccsc" />
          <path
             sodipodi:nodetypes="cccccsccsccsc"
             inkscape:connector-curvature="0"
             id="path4208"
             d="m 141.71506,704.47838 c -29.86317,47.4292 -35.1099,107.40616 2.98447,114.19314 -53.54101,17.68235 -74.430659,-54.06091 -65.710891,-80.37175 0.39217,-1.08745 1.051918,-2.05462 1.605734,-3.0548 0.907564,5.38574 2.519165,10.61671 4.72366,15.60203 2.248034,-10.22171 6.850218,-20.09532 13.970436,-28.72109 0.735861,-0.89153 1.525471,-1.76752 2.296171,-2.61196 -0.23476,3.49162 -0.20058,7.00871 0.12255,10.48412 3.75361,-6.12805 8.53075,-11.75936 14.34138,-16.6308 0.88605,-0.74243 1.7922,-1.47235 2.70376,-2.1624 -0.96995,3.79605 -1.56557,7.67149 -1.84367,11.56943 5.83285,-6.8343 13.08891,-12.63452 21.65749,-16.86169 1.03667,-0.51147 2.09976,-0.97996 3.14892,-1.43422 z"
             style="fill:#c8ff00;fill-opacity:1;stroke:none" />
          <path
             sodipodi:nodetypes="cccccsccsccsc"
             inkscape:connector-curvature="0"
             id="path4210"
             d="m 189.89043,713.81564 c -47.10267,30.37558 -77.19317,82.52273 -45.53113,104.76591 -55.999046,-6.58888 -44.628481,-80.44132 -25.61089,-100.60628 0.81482,-0.82002 1.82134,-1.41797 2.7458,-2.09061 -1.45236,5.26502 -2.2012,10.68715 -2.30889,16.13708 6.3554,-8.3154 14.69753,-15.32091 24.79494,-20.13171 1.04359,-0.49723 2.12933,-0.9577 3.18461,-1.39755 -1.6877,3.06565 -3.14239,6.26799 -4.31753,9.55461 5.99083,-3.96893 12.69957,-7.05525 20.02409,-9.01629 1.11675,-0.29869 2.24641,-0.57751 3.36414,-0.81791 -2.48264,3.03105 -4.65955,6.29216 -6.55817,9.7078 8.17382,-3.73079 17.20082,-5.92312 26.75301,-6.1352 1.15571,-0.0257 2.31718,-10e-4 3.46003,0.0302 z"
             style="fill:#5adff1;fill-opacity:1;stroke:none" />
        </g>
        <g
           transform="matrix(0,1,-1,0,1371.5583,624.23)"
           id="g4212">
          <path
             style="fill:#ffb732;fill-opacity:1;stroke:none"
             d="m 103.08288,709.89894 c -12.165114,54.71151 3.07278,112.95728 41.22983,106.53207 C 99.841989,851.096 56.03268,790.5632 55.392068,762.85247 c 0.0035,-1.156 0.299321,-2.28875 0.484363,-3.41694 2.666629,4.76643 5.944215,9.15025 9.697454,13.10326 -1.322005,-10.38218 -0.310003,-21.22855 3.493041,-31.74702 0.393051,-1.08713 0.841894,-2.1777 1.283574,-3.23223 0.953639,3.36706 2.169106,6.66761 3.642687,9.83171 1.473063,-7.03368 4.077116,-13.94393 7.910049,-20.4863 0.584612,-0.99729 1.192366,-1.98952 1.81863,-2.94603 0.363735,3.90111 1.106714,7.75101 2.156239,11.51529 3.193489,-8.39833 8.07511,-16.30165 14.721985,-23.16521 0.8042,-0.83042 1.64765,-1.62929 2.48283,-2.41004 z"
             id="path4214"
             inkscape:connector-curvature="0"
             sodipodi:nodetypes="cccccsccsccsc" />
          <path
             sodipodi:nodetypes="cccccsccsccsc"
             inkscape:connector-curvature="0"
             id="path4216"
             d="m 141.71506,704.47838 c -29.86317,47.4292 -35.1099,107.40616 2.98447,114.19314 -53.54101,17.68235 -74.430659,-54.06091 -65.710891,-80.37175 0.39217,-1.08745 1.051918,-2.05462 1.605734,-3.0548 0.907564,5.38574 2.519165,10.61671 4.72366,15.60203 2.248034,-10.22171 6.850218,-20.09532 13.970436,-28.72109 0.735861,-0.89153 1.525471,-1.76752 2.296171,-2.61196 -0.23476,3.49162 -0.20058,7.00871 0.12255,10.48412 3.75361,-6.12805 8.53075,-11.75936 14.34138,-16.6308 0.88605,-0.74243 1.7922,-1.47235 2.70376,-2.1624 -0.96995,3.79605 -1.56557,7.67149 -1.84367,11.56943 5.83285,-6.8343 13.08891,-12.63452 21.65749,-16.86169 1.03667,-0.51147 2.09976,-0.97996 3.14892,-1.43422 z"
             style="fill:#c8ff00;fill-opacity:1;stroke:none" />
          <path
             sodipodi:nodetypes="cccccsccsccsc"
             inkscape:connector-curvature="0"
             id="path4218"
             d="m 189.89043,713.81564 c -47.10267,30.37558 -77.19317,82.52273 -45.53113,104.76591 -55.999046,-6.58888 -44.628481,-80.44132 -25.61089,-100.60628 0.81482,-0.82002 1.82134,-1.41797 2.7458,-2.09061 -1.45236,5.26502 -2.2012,10.68715 -2.30889,16.13708 6.3554,-8.3154 14.69753,-15.32091 24.79494,-20.13171 1.04359,-0.49723 2.12933,-0.9577 3.18461,-1.39755 -1.6877,3.06565 -3.14239,6.26799 -4.31753,9.55461 5.99083,-3.96893 12.69957,-7.05525 20.02409,-9.01629 1.11675,-0.29869 2.24641,-0.57751 3.36414,-0.81791 -2.48264,3.03105 -4.65955,6.29216 -6.55817,9.7078 8.17382,-3.73079 17.20082,-5.92312 26.75301,-6.1352 1.15571,-0.0257 2.31718,-10e-4 3.46003,0.0302 z"
             style="fill:#5adff1;fill-opacity:1;stroke:none" />
        </g>
        <g
           id="g4220"
           transform="matrix(0,-1,1,0,-262.19129,902.03942)">
          <path
             sodipodi:nodetypes="cccccsccsccsc"
             inkscape:connector-curvature="0"
             id="path4222"
             d="m 103.08288,709.89894 c -12.165114,54.71151 3.07278,112.95728 41.22983,106.53207 C 99.841989,851.096 56.03268,790.5632 55.392068,762.85247 c 0.0035,-1.156 0.299321,-2.28875 0.484363,-3.41694 2.666629,4.76643 5.944215,9.15025 9.697454,13.10326 -1.322005,-10.38218 -0.310003,-21.22855 3.493041,-31.74702 0.393051,-1.08713 0.841894,-2.1777 1.283574,-3.23223 0.953639,3.36706 2.169106,6.66761 3.642687,9.83171 1.473063,-7.03368 4.077116,-13.94393 7.910049,-20.4863 0.584612,-0.99729 1.192366,-1.98952 1.81863,-2.94603 0.363735,3.90111 1.106714,7.75101 2.156239,11.51529 3.193489,-8.39833 8.07511,-16.30165 14.721985,-23.16521 0.8042,-0.83042 1.64765,-1.62929 2.48283,-2.41004 z"
             style="fill:#ffb732;fill-opacity:1;stroke:none" />
          <path
             style="fill:#c8ff00;fill-opacity:1;stroke:none"
             d="m 141.71506,704.47838 c -29.86317,47.4292 -35.1099,107.40616 2.98447,114.19314 -53.54101,17.68235 -74.430659,-54.06091 -65.710891,-80.37175 0.39217,-1.08745 1.051918,-2.05462 1.605734,-3.0548 0.907564,5.38574 2.519165,10.61671 4.72366,15.60203 2.248034,-10.22171 6.850218,-20.09532 13.970436,-28.72109 0.735861,-0.89153 1.525471,-1.76752 2.296171,-2.61196 -0.23476,3.49162 -0.20058,7.00871 0.12255,10.48412 3.75361,-6.12805 8.53075,-11.75936 14.34138,-16.6308 0.88605,-0.74243 1.7922,-1.47235 2.70376,-2.1624 -0.96995,3.79605 -1.56557,7.67149 -1.84367,11.56943 5.83285,-6.8343 13.08891,-12.63452 21.65749,-16.86169 1.03667,-0.51147 2.09976,-0.97996 3.14892,-1.43422 z"
             id="path4224"
             inkscape:connector-curvature="0"
             sodipodi:nodetypes="cccccsccsccsc" />
          <path
             style="fill:#5adff1;fill-opacity:1;stroke:none"
             d="m 189.89043,713.81564 c -47.10267,30.37558 -77.19317,82.52273 -45.53113,104.76591 -55.999046,-6.58888 -44.628481,-80.44132 -25.61089,-100.60628 0.81482,-0.82002 1.82134,-1.41797 2.7458,-2.09061 -1.45236,5.26502 -2.2012,10.68715 -2.30889,16.13708 6.3554,-8.3154 14.69753,-15.32091 24.79494,-20.13171 1.04359,-0.49723 2.12933,-0.9577 3.18461,-1.39755 -1.6877,3.06565 -3.14239,6.26799 -4.31753,9.55461 5.99083,-3.96893 12.69957,-7.05525 20.02409,-9.01629 1.11675,-0.29869 2.24641,-0.57751 3.36414,-0.81791 -2.48264,3.03105 -4.65955,6.29216 -6.55817,9.7078 8.17382,-3.73079 17.20082,-5.92312 26.75301,-6.1352 1.15571,-0.0257 2.31718,-10e-4 3.46003,0.0302 z"
             id="path4226"
             inkscape:connector-curvature="0"
             sodipodi:nodetypes="cccccsccsccsc" />
        </g>
      </g>
    </g>
  </g>
</svg>
